<svg xmlns="http://www.w3.org/2000/svg" viewBox="0 0 800 500" font-family="monospace" font-size="12">
  <rect width="800" height="500" fill="white"/>
  <text x="400" y="30" font-size="15" font-weight="bold" text-anchor="middle">Average Gas per Payment (announcement + ETH transfer)</text>
  <line x1="90" y1="420" x2="770" y2="420" stroke="silver"/>
  <text x="82" y="424" text-anchor="end" fill="gray">0</text>
  <line x1="90" y1="348" x2="770" y2="348" stroke="silver"/>
  <text x="82" y="352" text-anchor="end" fill="gray">19607</text>
  <line x1="90" y1="276" x2="770" y2="276" stroke="silver"/>
  <text x="82" y="280" text-anchor="end" fill="gray">39214</text>
  <line x1="90" y1="204" x2="770" y2="204" stroke="silver"/>
  <text x="82" y="208" text-anchor="end" fill="gray">58821</text>
  <line x1="90" y1="132" x2="770" y2="132" stroke="silver"/>
  <text x="82" y="136" text-anchor="end" fill="gray">78429</text>
  <line x1="90" y1="60" x2="770" y2="60" stroke="silver"/>
  <text x="82" y="64" text-anchor="end" fill="gray">98036</text>
  <text x="103.6" y="440" text-anchor="middle" fill="gray">1</text>
  <text x="117.2" y="440" text-anchor="middle" fill="gray">2</text>
  <text x="158" y="440" text-anchor="middle" fill="gray">5</text>
  <text x="226" y="440" text-anchor="middle" fill="gray">10</text>
  <text x="362" y="440" text-anchor="middle" fill="gray">20</text>
  <text x="770" y="440" text-anchor="middle" fill="gray">50</text>
  <text x="400" y="490" text-anchor="middle" font-size="13">Number of Payments (same recipient)</text>
  <text x="15" y="240" text-anchor="middle" font-size="13" transform="rotate(-90, 15, 240)">Gas per Payment</text>
  <polyline points="103.6,168.9 117.2,168.9 158.0,168.9 226.0,168.9 362.0,168.9 770.0,168.9" fill="none" stroke="gray" stroke-width="2.5"/>
  <circle cx="103.6" cy="168.9" r="4" fill="gray"/>
  <circle cx="117.2" cy="168.9" r="4" fill="gray"/>
  <circle cx="158.0" cy="168.9" r="4" fill="gray"/>
  <circle cx="226.0" cy="168.9" r="4" fill="gray"/>
  <circle cx="362.0" cy="168.9" r="4" fill="gray"/>
  <circle cx="770.0" cy="168.9" r="4" fill="gray"/>
  <polyline points="103.6,107.0 117.2,107.0 158.0,107.0 226.0,107.0 362.0,107.0 770.0,107.0" fill="none" stroke="crimson" stroke-width="2.5"/>
  <circle cx="103.6" cy="107.0" r="4" fill="crimson"/>
  <circle cx="117.2" cy="107.0" r="4" fill="crimson"/>
  <circle cx="158.0" cy="107.0" r="4" fill="crimson"/>
  <circle cx="226.0" cy="107.0" r="4" fill="crimson"/>
  <circle cx="362.0" cy="107.0" r="4" fill="crimson"/>
  <circle cx="770.0" cy="107.0" r="4" fill="crimson"/>
  <polyline points="103.6,-68.3 117.2,50.6 158.0,121.9 226.0,145.7 362.0,157.6 770.0,164.7" fill="none" stroke="steelblue" stroke-width="2.5"/>
  <circle cx="103.6" cy="-68.3" r="4" fill="steelblue"/>
  <circle cx="117.2" cy="50.6" r="4" fill="steelblue"/>
  <circle cx="158.0" cy="121.9" r="4" fill="steelblue"/>
  <circle cx="226.0" cy="145.7" r="4" fill="steelblue"/>
  <circle cx="362.0" cy="157.6" r="4" fill="steelblue"/>
  <circle cx="770.0" cy="164.7" r="4" fill="steelblue"/>
  <rect x="110" y="80" width="280" height="75" fill="white" stroke="silver" rx="4"/>
  <line x1="120" y1="96" x2="150" y2="96" stroke="gray" stroke-width="2.5"/>
  <text x="158" y="100" font-size="11">Classical ERC-5564 (33 B ECDH, no PQ)</text>
  <line x1="120" y1="116" x2="150" y2="116" stroke="crimson" stroke-width="2.5"/>
  <text x="158" y="120" font-size="11">Direct ML-KEM (1,089 B per payment)</text>
  <line x1="120" y1="136" x2="150" y2="136" stroke="steelblue" stroke-width="2.5"/>
  <text x="158" y="140" font-size="11">Pairwise channel (25 B per payment)</text>
</svg>
